<?xml version="1.0" standalone="no"?>
<!DOCTYPE svg PUBLIC "-//W3C//DTD SVG 20010904//EN"
 "http://www.w3.org/TR/2001/REC-SVG-20010904/DTD/svg10.dtd">
<svg version="1.0" xmlns="http://www.w3.org/2000/svg"
 width="145.000000pt" height="97.000000pt" viewBox="0 0 145.000000 97.000000"
 preserveAspectRatio="xMidYMid meet">

<g transform="translate(0.000000,97.000000) scale(0.100000,-0.100000)"
fill="#000000" stroke="none">
<path d="M622 658 c-54 -90 -212 -367 -212 -372 0 -3 15 -6 33 -6 29 0 35 6
64 58 17 31 56 99 85 149 l54 93 23 -40 23 -41 -59 -102 c-32 -56 -59 -105
-61 -109 -2 -5 11 -8 30 -8 32 0 35 4 116 145 46 80 87 145 90 145 4 0 15 -14
25 -31 l17 -31 -44 -77 c-24 -42 -54 -93 -66 -113 l-22 -38 165 0 165 0 -36
65 -37 64 -46 1 c-39 0 -49 -4 -63 -25 -9 -13 -16 -27 -16 -30 0 -3 20 -5 45
-5 25 0 45 -3 45 -7 0 -5 -25 -6 -55 -5 -30 2 -55 6 -55 10 0 3 12 25 26 49
20 35 28 42 39 33 15 -13 60 -10 59 4 0 14 -139 256 -146 256 -4 0 -24 -29
-44 -66 -20 -36 -38 -64 -39 -62 -2 2 -19 31 -39 66 -21 34 -39 62 -41 62 -2
0 -12 -15 -23 -32z"/>
</g>
</svg>
